<svg width="16" height="16" viewBox="0 0 16 16" fill="none" xmlns="http://www.w3.org/2000/svg">
<mask id="mask0_4_26039" style="mask-type:alpha" maskUnits="userSpaceOnUse" x="0" y="0" width="16" height="16">
<rect width="16" height="16" fill="#72908D"/>
</mask>
<g mask="url(#mask0_4_26039)">
<path d="M6.66667 12.6666C6.47778 12.6666 6.31944 12.6027 6.19167 12.475C6.06389 12.3472 6 12.1888 6 12C6 11.8111 6.06389 11.6527 6.19167 11.525C6.31944 11.3972 6.47778 11.3333 6.66667 11.3333H13.3333C13.5222 11.3333 13.6806 11.3972 13.8083 11.525C13.9361 11.6527 14 11.8111 14 12C14 12.1888 13.9361 12.3472 13.8083 12.475C13.6806 12.6027 13.5222 12.6666 13.3333 12.6666H6.66667ZM6.66667 8.66663C6.47778 8.66663 6.31944 8.60274 6.19167 8.47496C6.06389 8.34718 6 8.18885 6 7.99996C6 7.81107 6.06389 7.65274 6.19167 7.52496C6.31944 7.39718 6.47778 7.33329 6.66667 7.33329H13.3333C13.5222 7.33329 13.6806 7.39718 13.8083 7.52496C13.9361 7.65274 14 7.81107 14 7.99996C14 8.18885 13.9361 8.34718 13.8083 8.47496C13.6806 8.60274 13.5222 8.66663 13.3333 8.66663H6.66667ZM6.66667 4.66663C6.47778 4.66663 6.31944 4.60274 6.19167 4.47496C6.06389 4.34718 6 4.18885 6 3.99996C6 3.81107 6.06389 3.65274 6.19167 3.52496C6.31944 3.39718 6.47778 3.33329 6.66667 3.33329H13.3333C13.5222 3.33329 13.6806 3.39718 13.8083 3.52496C13.9361 3.65274 14 3.81107 14 3.99996C14 4.18885 13.9361 4.34718 13.8083 4.47496C13.6806 4.60274 13.5222 4.66663 13.3333 4.66663H6.66667ZM3.33333 13.3333C2.96667 13.3333 2.65278 13.2027 2.39167 12.9416C2.13056 12.6805 2 12.3666 2 12C2 11.6333 2.13056 11.3194 2.39167 11.0583C2.65278 10.7972 2.96667 10.6666 3.33333 10.6666C3.7 10.6666 4.01389 10.7972 4.275 11.0583C4.53611 11.3194 4.66667 11.6333 4.66667 12C4.66667 12.3666 4.53611 12.6805 4.275 12.9416C4.01389 13.2027 3.7 13.3333 3.33333 13.3333ZM3.33333 9.33329C2.96667 9.33329 2.65278 9.20274 2.39167 8.94163C2.13056 8.68052 2 8.36663 2 7.99996C2 7.63329 2.13056 7.3194 2.39167 7.05829C2.65278 6.79718 2.96667 6.66663 3.33333 6.66663C3.7 6.66663 4.01389 6.79718 4.275 7.05829C4.53611 7.3194 4.66667 7.63329 4.66667 7.99996C4.66667 8.36663 4.53611 8.68052 4.275 8.94163C4.01389 9.20274 3.7 9.33329 3.33333 9.33329ZM3.33333 5.33329C2.96667 5.33329 2.65278 5.20274 2.39167 4.94163C2.13056 4.68051 2 4.36663 2 3.99996C2 3.63329 2.13056 3.3194 2.39167 3.05829C2.65278 2.79718 2.96667 2.66663 3.33333 2.66663C3.7 2.66663 4.01389 2.79718 4.275 3.05829C4.53611 3.3194 4.66667 3.63329 4.66667 3.99996C4.66667 4.36663 4.53611 4.68051 4.275 4.94163C4.01389 5.20274 3.7 5.33329 3.33333 5.33329Z" fill="#72908D"/>
</g>
</svg>
