<svg width="29" height="28" viewBox="0 0 29 28" fill="none" xmlns="http://www.w3.org/2000/svg">
<g filter="url(#filter0_iii_402_14990)">
<rect x="0.5" width="28" height="28" rx="6" fill="url(#paint0_linear_402_14990)"/>
<path d="M15.1668 11.9997H11.1668M20.5002 15.3663C20.8735 15.353 21.1669 15.053 21.1669 14.6864V13.313C21.1669 12.9463 20.8735 12.6463 20.5002 12.633M20.5002 15.3663H19.1935C18.4735 15.3663 17.8135 14.8397 17.7535 14.1197C17.7135 13.6997 17.8735 13.3063 18.1535 13.033C18.4002 12.7797 18.7402 12.633 19.1135 12.633H20.5002M20.5002 15.3663L20.5002 16.333C20.5002 18.333 19.1668 19.6663 17.1668 19.6663H11.1668C9.16683 19.6663 7.8335 18.333 7.8335 16.333V11.6663C7.8335 9.85301 8.92683 8.58634 10.6268 8.37301C10.8002 8.34634 10.9802 8.33301 11.1668 8.33301H17.1668C17.3402 8.33301 17.5068 8.33967 17.6668 8.36633C19.3868 8.56633 20.5002 9.83967 20.5002 11.6663L20.5002 12.633" stroke="white" stroke-width="1.5" stroke-linecap="round" stroke-linejoin="round"/>
</g>
<defs>
<filter id="filter0_iii_402_14990" x="0.5" y="-3" width="28" height="33" filterUnits="userSpaceOnUse" color-interpolation-filters="sRGB">
<feFlood flood-opacity="0" result="BackgroundImageFix"/>
<feBlend mode="normal" in="SourceGraphic" in2="BackgroundImageFix" result="shape"/>
<feColorMatrix in="SourceAlpha" type="matrix" values="0 0 0 0 0 0 0 0 0 0 0 0 0 0 0 0 0 0 127 0" result="hardAlpha"/>
<feOffset dy="2"/>
<feGaussianBlur stdDeviation="2"/>
<feComposite in2="hardAlpha" operator="arithmetic" k2="-1" k3="1"/>
<feColorMatrix type="matrix" values="0 0 0 0 1 0 0 0 0 1 0 0 0 0 1 0 0 0 0.54 0"/>
<feBlend mode="normal" in2="shape" result="effect1_innerShadow_402_14990"/>
<feColorMatrix in="SourceAlpha" type="matrix" values="0 0 0 0 0 0 0 0 0 0 0 0 0 0 0 0 0 0 127 0" result="hardAlpha"/>
<feOffset dy="-3"/>
<feGaussianBlur stdDeviation="2"/>
<feComposite in2="hardAlpha" operator="arithmetic" k2="-1" k3="1"/>
<feColorMatrix type="matrix" values="0 0 0 0 0.384314 0 0 0 0 0.388235 0 0 0 0 0.835294 0 0 0 0.94 0"/>
<feBlend mode="normal" in2="effect1_innerShadow_402_14990" result="effect2_innerShadow_402_14990"/>
<feColorMatrix in="SourceAlpha" type="matrix" values="0 0 0 0 0 0 0 0 0 0 0 0 0 0 0 0 0 0 127 0" result="hardAlpha"/>
<feOffset dy="-2"/>
<feGaussianBlur stdDeviation="1"/>
<feComposite in2="hardAlpha" operator="arithmetic" k2="-1" k3="1"/>
<feColorMatrix type="matrix" values="0 0 0 0 0.384314 0 0 0 0 0.388235 0 0 0 0 0.835294 0 0 0 0.4 0"/>
<feBlend mode="normal" in2="effect2_innerShadow_402_14990" result="effect3_innerShadow_402_14990"/>
</filter>
<linearGradient id="paint0_linear_402_14990" x1="27.1192" y1="28.3457" x2="5.33792" y2="-1.75535" gradientUnits="userSpaceOnUse">
<stop stop-color="#6263D5"/>
<stop offset="1" stop-color="#B4B4FF"/>
</linearGradient>
</defs>
</svg>
