<svg width="29" height="28" viewBox="0 0 29 28" fill="none" xmlns="http://www.w3.org/2000/svg">
<g filter="url(#filter0_iii_351_3536)">
<rect x="0.333252" width="28" height="28" rx="6" fill="url(#paint0_linear_351_3536)"/>
<path d="M8.95296 16.5863L16.9196 8.61963M13.734 18.1862L14.534 17.3862M15.5285 16.3927L17.1218 14.7993M7.6665 20.6659H20.9998M8.73402 12.8262L13.1607 8.3995C14.574 6.98616 15.2807 6.9795 16.6807 8.3795L19.954 11.6528C21.354 13.0528 21.3474 13.7595 19.934 15.1728L15.5074 19.5995C14.094 21.0128 13.3874 21.0195 11.9874 19.6195L8.71402 16.3462C7.31402 14.9462 7.31402 14.2462 8.73402 12.8262Z" stroke="white" stroke-width="1.5" stroke-linecap="round" stroke-linejoin="round"/>
</g>
<defs>
<filter id="filter0_iii_351_3536" x="0.333252" y="-3" width="28" height="33" filterUnits="userSpaceOnUse" color-interpolation-filters="sRGB">
<feFlood flood-opacity="0" result="BackgroundImageFix"/>
<feBlend mode="normal" in="SourceGraphic" in2="BackgroundImageFix" result="shape"/>
<feColorMatrix in="SourceAlpha" type="matrix" values="0 0 0 0 0 0 0 0 0 0 0 0 0 0 0 0 0 0 127 0" result="hardAlpha"/>
<feOffset dy="2"/>
<feGaussianBlur stdDeviation="2"/>
<feComposite in2="hardAlpha" operator="arithmetic" k2="-1" k3="1"/>
<feColorMatrix type="matrix" values="0 0 0 0 1 0 0 0 0 1 0 0 0 0 1 0 0 0 0.54 0"/>
<feBlend mode="normal" in2="shape" result="effect1_innerShadow_351_3536"/>
<feColorMatrix in="SourceAlpha" type="matrix" values="0 0 0 0 0 0 0 0 0 0 0 0 0 0 0 0 0 0 127 0" result="hardAlpha"/>
<feOffset dy="-3"/>
<feGaussianBlur stdDeviation="2"/>
<feComposite in2="hardAlpha" operator="arithmetic" k2="-1" k3="1"/>
<feColorMatrix type="matrix" values="0 0 0 0 0.384314 0 0 0 0 0.388235 0 0 0 0 0.835294 0 0 0 0.94 0"/>
<feBlend mode="normal" in2="effect1_innerShadow_351_3536" result="effect2_innerShadow_351_3536"/>
<feColorMatrix in="SourceAlpha" type="matrix" values="0 0 0 0 0 0 0 0 0 0 0 0 0 0 0 0 0 0 127 0" result="hardAlpha"/>
<feOffset dy="-2"/>
<feGaussianBlur stdDeviation="1"/>
<feComposite in2="hardAlpha" operator="arithmetic" k2="-1" k3="1"/>
<feColorMatrix type="matrix" values="0 0 0 0 0.704167 0 0 0 0 0.706739 0 0 0 0 1 0 0 0 0.4 0"/>
<feBlend mode="normal" in2="effect2_innerShadow_351_3536" result="effect3_innerShadow_351_3536"/>
</filter>
<linearGradient id="paint0_linear_351_3536" x1="26.9525" y1="28.3457" x2="5.17117" y2="-1.75535" gradientUnits="userSpaceOnUse">
<stop stop-color="#6263D5"/>
<stop offset="1" stop-color="#B4B4FF"/>
</linearGradient>
</defs>
</svg>
