<svg width="28" height="28" viewBox="0 0 28 28" fill="none" xmlns="http://www.w3.org/2000/svg">
<g filter="url(#filter0_iii_402_14983)">
<rect width="28" height="28" rx="6" fill="url(#paint0_linear_402_14983)"/>
<path d="M14.6668 11.9997H10.6668M20.0002 15.3663C20.3735 15.353 20.6669 15.053 20.6669 14.6864V13.313C20.6669 12.9463 20.3735 12.6463 20.0002 12.633M20.0002 15.3663H18.6935C17.9735 15.3663 17.3135 14.8397 17.2535 14.1197C17.2135 13.6997 17.3735 13.3063 17.6535 13.033C17.9002 12.7797 18.2402 12.633 18.6135 12.633H20.0002M20.0002 15.3663L20.0002 16.333C20.0002 18.333 18.6668 19.6663 16.6668 19.6663H10.6668C8.66683 19.6663 7.3335 18.333 7.3335 16.333V11.6663C7.3335 9.85301 8.42683 8.58634 10.1268 8.37301C10.3002 8.34634 10.4802 8.33301 10.6668 8.33301H16.6668C16.8402 8.33301 17.0068 8.33967 17.1668 8.36633C18.8868 8.56633 20.0002 9.83967 20.0002 11.6663L20.0002 12.633" stroke="white" stroke-width="1.5" stroke-linecap="round" stroke-linejoin="round"/>
</g>
<defs>
<filter id="filter0_iii_402_14983" x="0" y="-3" width="28" height="33" filterUnits="userSpaceOnUse" color-interpolation-filters="sRGB">
<feFlood flood-opacity="0" result="BackgroundImageFix"/>
<feBlend mode="normal" in="SourceGraphic" in2="BackgroundImageFix" result="shape"/>
<feColorMatrix in="SourceAlpha" type="matrix" values="0 0 0 0 0 0 0 0 0 0 0 0 0 0 0 0 0 0 127 0" result="hardAlpha"/>
<feOffset dy="2"/>
<feGaussianBlur stdDeviation="2"/>
<feComposite in2="hardAlpha" operator="arithmetic" k2="-1" k3="1"/>
<feColorMatrix type="matrix" values="0 0 0 0 1 0 0 0 0 1 0 0 0 0 1 0 0 0 0.54 0"/>
<feBlend mode="normal" in2="shape" result="effect1_innerShadow_402_14983"/>
<feColorMatrix in="SourceAlpha" type="matrix" values="0 0 0 0 0 0 0 0 0 0 0 0 0 0 0 0 0 0 127 0" result="hardAlpha"/>
<feOffset dy="-3"/>
<feGaussianBlur stdDeviation="2"/>
<feComposite in2="hardAlpha" operator="arithmetic" k2="-1" k3="1"/>
<feColorMatrix type="matrix" values="0 0 0 0 1 0 0 0 0 0.639216 0 0 0 0 0.054902 0 0 0 0.94 0"/>
<feBlend mode="normal" in2="effect1_innerShadow_402_14983" result="effect2_innerShadow_402_14983"/>
<feColorMatrix in="SourceAlpha" type="matrix" values="0 0 0 0 0 0 0 0 0 0 0 0 0 0 0 0 0 0 127 0" result="hardAlpha"/>
<feOffset dy="-2"/>
<feGaussianBlur stdDeviation="1"/>
<feComposite in2="hardAlpha" operator="arithmetic" k2="-1" k3="1"/>
<feColorMatrix type="matrix" values="0 0 0 0 1 0 0 0 0 0.815686 0 0 0 0 0 0 0 0 0.4 0"/>
<feBlend mode="normal" in2="effect2_innerShadow_402_14983" result="effect3_innerShadow_402_14983"/>
</filter>
<linearGradient id="paint0_linear_402_14983" x1="26.6192" y1="28.3457" x2="4.83792" y2="-1.75535" gradientUnits="userSpaceOnUse">
<stop stop-color="#FFA30E"/>
<stop offset="1" stop-color="#FFD000"/>
</linearGradient>
</defs>
</svg>
