<svg width="29" height="28" viewBox="0 0 29 28" fill="none" xmlns="http://www.w3.org/2000/svg">
<g filter="url(#filter0_iii_351_3560)">
<rect x="0.333252" width="28" height="28" rx="6" fill="url(#paint0_linear_351_3560)"/>
<path d="M18.6227 10.5239L18.6242 10.5315L18.6259 10.5391C18.6755 10.7538 18.6998 10.9948 18.6998 11.28V14.7133C18.6998 15.6447 18.4362 16.2277 18.0529 16.5836C17.6629 16.9458 17.0698 17.1467 16.2665 17.1467H10.4065C10.1352 17.1467 9.88637 17.1225 9.6629 17.0722L9.64761 17.0688L9.63214 17.0663C9.50574 17.0461 9.37801 17.0096 9.25276 16.9642C8.84676 16.8122 8.53906 16.5694 8.32698 16.2258C8.11117 15.876 7.97314 15.3868 7.97314 14.7133V11.28C7.97314 10.3486 8.23673 9.76567 8.62004 9.40974C9.01005 9.04759 9.60312 8.84668 10.4065 8.84668H16.2598C16.9409 8.84668 17.4728 8.99161 17.8547 9.25553C18.2258 9.51193 18.5014 9.91196 18.6227 10.5239ZM12.4065 19.1533C12.3233 19.1533 12.2424 19.1511 12.1638 19.1467H16.2598C17.5922 19.1467 18.7148 18.7486 19.5048 17.9596C20.2949 17.1705 20.6931 16.0495 20.6931 14.72V13.0322C20.6975 13.1119 20.6998 13.1945 20.6998 13.28V16.7133C20.6998 17.6447 20.4362 18.2296 20.0517 18.5873C19.6608 18.951 19.066 19.1533 18.2598 19.1533H12.4065ZM9.51981 15C10.0693 15 10.5198 14.5495 10.5198 14V12C10.5198 11.4505 10.0693 11 9.51981 11C8.97034 11 8.51981 11.4505 8.51981 12V14C8.51981 14.5495 8.97034 15 9.51981 15ZM11.0731 13C11.0731 14.2495 12.0837 15.26 13.3331 15.26C14.5826 15.26 15.5931 14.2495 15.5931 13C15.5931 11.7505 14.5826 10.74 13.3331 10.74C12.0837 10.74 11.0731 11.7505 11.0731 13ZM17.1398 15C17.6893 15 18.1398 14.5495 18.1398 14V12C18.1398 11.4505 17.6893 11 17.1398 11C16.5903 11 16.1398 11.4505 16.1398 12V14C16.1398 14.5495 16.5903 15 17.1398 15Z" stroke="white"/>
</g>
<defs>
<filter id="filter0_iii_351_3560" x="0.333252" y="-3" width="28" height="33" filterUnits="userSpaceOnUse" color-interpolation-filters="sRGB">
<feFlood flood-opacity="0" result="BackgroundImageFix"/>
<feBlend mode="normal" in="SourceGraphic" in2="BackgroundImageFix" result="shape"/>
<feColorMatrix in="SourceAlpha" type="matrix" values="0 0 0 0 0 0 0 0 0 0 0 0 0 0 0 0 0 0 127 0" result="hardAlpha"/>
<feOffset dy="2"/>
<feGaussianBlur stdDeviation="2"/>
<feComposite in2="hardAlpha" operator="arithmetic" k2="-1" k3="1"/>
<feColorMatrix type="matrix" values="0 0 0 0 1 0 0 0 0 1 0 0 0 0 1 0 0 0 0.54 0"/>
<feBlend mode="normal" in2="shape" result="effect1_innerShadow_351_3560"/>
<feColorMatrix in="SourceAlpha" type="matrix" values="0 0 0 0 0 0 0 0 0 0 0 0 0 0 0 0 0 0 127 0" result="hardAlpha"/>
<feOffset dy="-3"/>
<feGaussianBlur stdDeviation="2"/>
<feComposite in2="hardAlpha" operator="arithmetic" k2="-1" k3="1"/>
<feColorMatrix type="matrix" values="0 0 0 0 1 0 0 0 0 0.639216 0 0 0 0 0.054902 0 0 0 0.94 0"/>
<feBlend mode="normal" in2="effect1_innerShadow_351_3560" result="effect2_innerShadow_351_3560"/>
<feColorMatrix in="SourceAlpha" type="matrix" values="0 0 0 0 0 0 0 0 0 0 0 0 0 0 0 0 0 0 127 0" result="hardAlpha"/>
<feOffset dy="-2"/>
<feGaussianBlur stdDeviation="1"/>
<feComposite in2="hardAlpha" operator="arithmetic" k2="-1" k3="1"/>
<feColorMatrix type="matrix" values="0 0 0 0 1 0 0 0 0 0.815686 0 0 0 0 0 0 0 0 0.4 0"/>
<feBlend mode="normal" in2="effect2_innerShadow_351_3560" result="effect3_innerShadow_351_3560"/>
</filter>
<linearGradient id="paint0_linear_351_3560" x1="26.9525" y1="28.3457" x2="5.17117" y2="-1.75535" gradientUnits="userSpaceOnUse">
<stop stop-color="#FFA30E"/>
<stop offset="1" stop-color="#FFD000"/>
</linearGradient>
</defs>
</svg>
