<svg width="18" height="19" viewBox="0 0 18 19" fill="none" xmlns="http://www.w3.org/2000/svg">
<mask id="mask0_168_33128" style="mask-type:alpha" maskUnits="userSpaceOnUse" x="0" y="0" width="18" height="19">
<rect y="0.5" width="18" height="18" fill="#D9D9D9"/>
</mask>
<g mask="url(#mask0_168_33128)">
<path d="M8.09961 9.5001L11.0246 12.4251C11.1621 12.5626 11.2309 12.7376 11.2309 12.9501C11.2309 13.1626 11.1621 13.3376 11.0246 13.4751C10.8871 13.6126 10.7121 13.6813 10.4996 13.6813C10.2871 13.6813 10.1121 13.6126 9.97461 13.4751L6.52461 10.0251C6.44961 9.9501 6.39648 9.86885 6.36523 9.78135C6.33398 9.69385 6.31836 9.6001 6.31836 9.5001C6.31836 9.4001 6.33398 9.30635 6.36523 9.21885C6.39648 9.13135 6.44961 9.0501 6.52461 8.9751L9.97461 5.5251C10.1121 5.3876 10.2871 5.31885 10.4996 5.31885C10.7121 5.31885 10.8871 5.3876 11.0246 5.5251C11.1621 5.6626 11.2309 5.8376 11.2309 6.0501C11.2309 6.2626 11.1621 6.4376 11.0246 6.5751L8.09961 9.5001Z" fill="#1C1B1F"/>
</g>
</svg>
