<svg width="18" height="19" viewBox="0 0 18 19" fill="none" xmlns="http://www.w3.org/2000/svg">
<mask id="mask0_168_33120" style="mask-type:alpha" maskUnits="userSpaceOnUse" x="0" y="0" width="18" height="19">
<rect x="18" y="18.5" width="18" height="18" transform="rotate(-180 18 18.5)" fill="#D9D9D9"/>
</mask>
<g mask="url(#mask0_168_33120)">
<path d="M9.8999 9.4999L6.9749 6.5749C6.8374 6.4374 6.76865 6.2624 6.76865 6.0499C6.76865 5.8374 6.8374 5.6624 6.9749 5.5249C7.1124 5.3874 7.2874 5.31865 7.4999 5.31865C7.7124 5.31865 7.8874 5.3874 8.0249 5.5249L11.4749 8.9749C11.5499 9.0499 11.603 9.13115 11.6343 9.21865C11.6655 9.30615 11.6812 9.3999 11.6812 9.4999C11.6812 9.5999 11.6655 9.69365 11.6343 9.78115C11.603 9.86865 11.5499 9.9499 11.4749 10.0249L8.0249 13.4749C7.8874 13.6124 7.7124 13.6812 7.4999 13.6812C7.2874 13.6812 7.1124 13.6124 6.9749 13.4749C6.8374 13.3374 6.76865 13.1624 6.76865 12.9499C6.76865 12.7374 6.8374 12.5624 6.9749 12.4249L9.8999 9.4999Z" fill="#1C1B1F"/>
</g>
</svg>
