<svg width="20" height="20" viewBox="0 0 20 20" fill="none" xmlns="http://www.w3.org/2000/svg">
<mask id="mask0_165_42" style="mask-type:alpha" maskUnits="userSpaceOnUse" x="0" y="0" width="20" height="20">
<rect width="20" height="20" fill="#D9D9D9"/>
</mask>
<g mask="url(#mask0_165_42)">
<path d="M7.5 7.50008V5.83342H15V7.50008H7.5ZM7.5 10.0001V8.33342H15V10.0001H7.5ZM11.6667 18.3334V15.7709L16.2708 11.1876C16.3958 11.0626 16.5347 10.9723 16.6875 10.9167C16.8403 10.8612 16.9931 10.8334 17.1458 10.8334C17.3125 10.8334 17.4722 10.8647 17.625 10.9272C17.7778 10.9897 17.9167 11.0834 18.0417 11.2084L18.8125 11.9792C18.9236 12.1042 19.0104 12.2431 19.0729 12.3959C19.1354 12.5487 19.1667 12.7015 19.1667 12.8542C19.1667 13.007 19.1389 13.1633 19.0833 13.323C19.0278 13.4827 18.9375 13.6251 18.8125 13.7501L14.2292 18.3334H11.6667ZM17.1458 13.6667L17.9167 12.8542L17.1458 12.0834L16.3542 12.8751L17.1458 13.6667ZM5 18.3334C4.30556 18.3334 3.71528 18.0904 3.22917 17.6042C2.74306 17.1181 2.5 16.5279 2.5 15.8334V13.3334H5V1.66675H17.5V9.18758C17.2222 9.1598 16.941 9.17022 16.6563 9.21883C16.3715 9.26744 16.0972 9.35425 15.8333 9.47925V3.33341H6.66667V13.3334H11.6667L10 15.0001V18.3334H5Z" fill="#72908D"/>
</g>
</svg>
