<svg width="20" height="20" viewBox="0 0 20 20" fill="none" xmlns="http://www.w3.org/2000/svg">
<mask id="mask0_165_36" style="mask-type:alpha" maskUnits="userSpaceOnUse" x="0" y="0" width="20" height="20">
<rect width="20" height="20" fill="#D9D9D9"/>
</mask>
<g mask="url(#mask0_165_36)">
<path d="M15.417 13.9999V12.0833C15.417 11.9721 15.3753 11.8749 15.292 11.7916C15.2087 11.7083 15.1114 11.6666 15.0003 11.6666C14.8892 11.6666 14.792 11.7083 14.7087 11.7916C14.6253 11.8749 14.5837 11.9721 14.5837 12.0833V13.9791C14.5837 14.0902 14.6045 14.1978 14.6462 14.302C14.6878 14.4062 14.7503 14.4999 14.8337 14.5833L16.1045 15.8541C16.1878 15.9374 16.285 15.9791 16.3962 15.9791C16.5073 15.9791 16.6045 15.9374 16.6878 15.8541C16.7712 15.7708 16.8128 15.6735 16.8128 15.5624C16.8128 15.4513 16.7712 15.3541 16.6878 15.2708L15.417 13.9999ZM15.0212 18.3333C13.8545 18.3333 12.8649 17.9305 12.0524 17.1249C11.2399 16.3194 10.8337 15.3333 10.8337 14.1666C10.8337 12.9999 11.2399 12.0138 12.0524 11.2083C12.8649 10.4027 13.8545 9.99992 15.0212 9.99992C16.1739 9.99992 17.1531 10.4062 17.9587 11.2187C18.7642 12.0312 19.167 13.0138 19.167 14.1666C19.167 15.3194 18.7642 16.302 17.9587 17.1145C17.1531 17.927 16.1739 18.3333 15.0212 18.3333ZM3.33366 16.6666C2.87533 16.6666 2.48296 16.5034 2.15658 16.177C1.83019 15.8506 1.66699 15.4583 1.66699 14.9999V4.99992C1.66699 4.54159 1.83019 4.14922 2.15658 3.82284C2.48296 3.49645 2.87533 3.33325 3.33366 3.33325H16.667C17.1253 3.33325 17.5177 3.49645 17.8441 3.82284C18.1705 4.14922 18.3337 4.54159 18.3337 4.99992V8.18742C18.3337 8.42353 18.2538 8.62145 18.0941 8.78117C17.9344 8.94089 17.7364 9.02075 17.5003 9.02075C17.2642 9.02075 17.0663 8.94089 16.9066 8.78117C16.7469 8.62145 16.667 8.42353 16.667 8.18742V6.66659H3.33366V9.99992H9.58366C9.81977 9.99992 9.99338 10.111 10.1045 10.3333C10.2156 10.5555 10.1948 10.7708 10.042 10.9791C9.73644 11.4374 9.50033 11.9374 9.33366 12.4791C9.16699 13.0208 9.08366 13.5833 9.08366 14.1666C9.08366 14.4305 9.10102 14.6909 9.13574 14.9478C9.17046 15.2048 9.22255 15.4513 9.29199 15.6874C9.36144 15.9235 9.32324 16.1458 9.17741 16.3541C9.03158 16.5624 8.8406 16.6666 8.60449 16.6666H3.33366Z" fill="#72908D"/>
</g>
</svg>
