<svg width="240" height="241" viewBox="0 0 240 241" fill="none" xmlns="http://www.w3.org/2000/svg">
<path d="M83.8379 9.31884C83.3108 7.69821 84.1964 5.95304 85.83 5.46776C104.857 -0.184207 125.006 -1.03264 144.469 3.02118C163.932 7.07501 182.067 15.8973 197.255 28.6757C198.559 29.7729 198.674 31.7265 197.544 33.0019L174.123 59.4297C172.992 60.7051 171.046 60.8175 169.727 59.7382C159.96 51.7446 148.396 46.2134 136.01 43.6336C123.624 41.0538 110.814 41.5083 98.6672 44.9376C97.0271 45.4006 95.2873 44.5204 94.7602 42.8998L83.8379 9.31884Z" fill="#FF9364"/>
<path d="M200.378 35.5983C201.55 34.3607 203.506 34.3045 204.713 35.5075C213.543 44.3081 220.947 54.431 226.66 65.5115C227.441 67.0263 226.794 68.8734 225.26 69.6151L193.468 84.9843C191.933 85.726 190.094 85.0802 189.292 83.5762C185.793 77.0088 181.377 70.9721 176.178 65.6476C174.988 64.4283 174.929 62.4794 176.101 61.2419L200.378 35.5983Z" fill="#00A389"/>
<path d="M227.217 73.879C228.78 73.1994 230.601 73.9142 231.241 75.494C242.377 103.017 242.913 133.698 232.745 161.593C232.161 163.194 230.365 163.972 228.78 163.348L195.924 150.406C194.338 149.781 193.566 147.991 194.128 146.382C200.289 128.736 199.953 109.464 193.178 92.0446C192.561 90.4562 193.27 88.6399 194.833 87.9603L227.217 73.879Z" fill="#9DFBA6"/>
<path d="M226.454 168.837C228.006 169.542 228.696 171.373 227.952 172.906C219.796 189.707 207.823 204.386 192.975 215.761C177.309 227.762 158.925 235.714 139.452 238.913C119.979 242.112 100.018 240.459 81.3358 234.101C62.6541 227.742 45.8288 216.875 32.3503 202.461C18.8718 188.046 9.15615 170.531 4.06393 151.465C-1.02828 132.399 -1.33988 112.372 3.15674 93.1568C7.65336 73.9418 16.8194 56.1323 29.843 41.3059C42.1871 27.2529 57.6357 16.291 74.9457 9.279C76.5252 8.63916 78.306 9.45066 78.9051 11.0461L91.3178 44.1067C91.9168 45.7022 91.1062 47.4754 89.5355 48.1367C78.609 52.7366 68.8529 59.7572 61.0113 68.6842C52.4902 78.385 46.493 90.0375 43.5509 102.61C40.6088 115.182 40.8127 128.285 44.1444 140.76C47.4762 153.235 53.833 164.695 62.6519 174.126C71.4707 183.557 82.4793 190.667 94.7025 194.827C106.926 198.988 119.986 200.069 132.727 197.976C145.468 195.883 157.497 190.68 167.746 182.828C177.179 175.603 184.837 166.339 190.159 155.745C190.924 154.222 192.748 153.532 194.3 154.237L226.454 168.837Z" fill="#FFD572"/>
</svg>
