<svg width="29" height="28" viewBox="0 0 29 28" fill="none" xmlns="http://www.w3.org/2000/svg">
<g filter="url(#filter0_iii_351_3544)">
<rect x="0.666504" width="28" height="28" rx="6" fill="url(#paint0_linear_351_3544)"/>
<path d="M11.9998 7.3335V9.3335M17.3332 7.3335V9.3335M8.99984 12.0602H20.3332M17.1296 15.1335H17.1356M17.1296 17.1335H17.1356M14.6635 15.1335H14.6695M14.6635 17.1335H14.6695M12.196 15.1335H12.202M12.196 17.1335H12.202M20.6665 11.6668V17.3335C20.6665 19.3335 19.6665 20.6668 17.3332 20.6668H11.9998C9.6665 20.6668 8.6665 19.3335 8.6665 17.3335V11.6668C8.6665 9.66683 9.6665 8.3335 11.9998 8.3335H17.3332C19.6665 8.3335 20.6665 9.66683 20.6665 11.6668Z" stroke="white" stroke-width="1.5" stroke-linecap="round" stroke-linejoin="round"/>
</g>
<defs>
<filter id="filter0_iii_351_3544" x="0.666504" y="-3" width="28" height="33" filterUnits="userSpaceOnUse" color-interpolation-filters="sRGB">
<feFlood flood-opacity="0" result="BackgroundImageFix"/>
<feBlend mode="normal" in="SourceGraphic" in2="BackgroundImageFix" result="shape"/>
<feColorMatrix in="SourceAlpha" type="matrix" values="0 0 0 0 0 0 0 0 0 0 0 0 0 0 0 0 0 0 127 0" result="hardAlpha"/>
<feOffset dy="2"/>
<feGaussianBlur stdDeviation="2"/>
<feComposite in2="hardAlpha" operator="arithmetic" k2="-1" k3="1"/>
<feColorMatrix type="matrix" values="0 0 0 0 1 0 0 0 0 1 0 0 0 0 1 0 0 0 0.54 0"/>
<feBlend mode="normal" in2="shape" result="effect1_innerShadow_351_3544"/>
<feColorMatrix in="SourceAlpha" type="matrix" values="0 0 0 0 0 0 0 0 0 0 0 0 0 0 0 0 0 0 127 0" result="hardAlpha"/>
<feOffset dy="-3"/>
<feGaussianBlur stdDeviation="2"/>
<feComposite in2="hardAlpha" operator="arithmetic" k2="-1" k3="1"/>
<feColorMatrix type="matrix" values="0 0 0 0 0.0588235 0 0 0 0 0.45098 0 0 0 0 0.819608 0 0 0 0.94 0"/>
<feBlend mode="normal" in2="effect1_innerShadow_351_3544" result="effect2_innerShadow_351_3544"/>
<feColorMatrix in="SourceAlpha" type="matrix" values="0 0 0 0 0 0 0 0 0 0 0 0 0 0 0 0 0 0 127 0" result="hardAlpha"/>
<feOffset dy="-2"/>
<feGaussianBlur stdDeviation="1"/>
<feComposite in2="hardAlpha" operator="arithmetic" k2="-1" k3="1"/>
<feColorMatrix type="matrix" values="0 0 0 0 0.858333 0 0 0 0 0.970486 0 0 0 0 1 0 0 0 0.4 0"/>
<feBlend mode="normal" in2="effect2_innerShadow_351_3544" result="effect3_innerShadow_351_3544"/>
</filter>
<linearGradient id="paint0_linear_351_3544" x1="27.2857" y1="28.3457" x2="5.50442" y2="-1.75535" gradientUnits="userSpaceOnUse">
<stop stop-color="#0075FF"/>
<stop offset="0.579482" stop-color="#2CAEFF"/>
<stop offset="1" stop-color="#48D3FF"/>
</linearGradient>
</defs>
</svg>
