<svg width="20" height="20" viewBox="0 0 20 20" fill="none" xmlns="http://www.w3.org/2000/svg">
<mask id="mask0_165_30" style="mask-type:alpha" maskUnits="userSpaceOnUse" x="0" y="0" width="20" height="20">
<rect width="20" height="20" fill="#D9D9D9"/>
</mask>
<g mask="url(#mask0_165_30)">
<path d="M3.33301 15.8334V8.33342C3.33301 8.06953 3.39204 7.81953 3.51009 7.58342C3.62815 7.3473 3.79134 7.15286 3.99967 7.00008L8.99967 3.25008C9.29134 3.02786 9.62467 2.91675 9.99967 2.91675C10.3747 2.91675 10.708 3.02786 10.9997 3.25008L15.9997 7.00008C16.208 7.15286 16.3712 7.3473 16.4893 7.58342C16.6073 7.81953 16.6663 8.06953 16.6663 8.33342V15.8334C16.6663 16.2917 16.5031 16.6841 16.1768 17.0105C15.8504 17.3369 15.458 17.5001 14.9997 17.5001H12.4997C12.2636 17.5001 12.0656 17.4202 11.9059 17.2605C11.7462 17.1008 11.6663 16.9029 11.6663 16.6667V12.5001C11.6663 12.264 11.5865 12.0661 11.4268 11.9063C11.267 11.7466 11.0691 11.6667 10.833 11.6667H9.16634C8.93023 11.6667 8.73231 11.7466 8.57259 11.9063C8.41287 12.0661 8.33301 12.264 8.33301 12.5001V16.6667C8.33301 16.9029 8.25315 17.1008 8.09342 17.2605C7.9337 17.4202 7.73579 17.5001 7.49967 17.5001H4.99967C4.54134 17.5001 4.14898 17.3369 3.82259 17.0105C3.4962 16.6841 3.33301 16.2917 3.33301 15.8334Z" fill="black"/>
</g>
</svg>
