<svg width="28" height="28" viewBox="0 0 28 28" fill="none" xmlns="http://www.w3.org/2000/svg">
<g filter="url(#filter0_iii_351_3529)">
<rect width="28" height="28" rx="6" fill="url(#paint0_linear_351_3529)"/>
<path d="M11.7812 15.5534C11.7812 16.4134 12.4412 17.1067 13.2612 17.1067H14.9345C15.6478 17.1067 16.2278 16.5001 16.2278 15.7534C16.2278 14.9401 15.8745 14.6534 15.3478 14.4667L12.6612 13.5334C12.1345 13.3467 11.7812 13.0601 11.7812 12.2467C11.7812 11.5001 12.3612 10.8934 13.0745 10.8934H14.7478C15.5678 10.8934 16.2278 11.5867 16.2278 12.4467M13.9999 10.0002V18.0002M20.6666 14.0002C20.6666 17.6821 17.6818 20.6668 13.9999 20.6668C10.318 20.6668 7.33325 17.6821 7.33325 14.0002C7.33325 10.3183 10.318 7.3335 13.9999 7.3335C17.6818 7.3335 20.6666 10.3183 20.6666 14.0002Z" stroke="white" stroke-width="1.5" stroke-linecap="round" stroke-linejoin="round"/>
</g>
<defs>
<filter id="filter0_iii_351_3529" x="0" y="-3" width="28" height="33" filterUnits="userSpaceOnUse" color-interpolation-filters="sRGB">
<feFlood flood-opacity="0" result="BackgroundImageFix"/>
<feBlend mode="normal" in="SourceGraphic" in2="BackgroundImageFix" result="shape"/>
<feColorMatrix in="SourceAlpha" type="matrix" values="0 0 0 0 0 0 0 0 0 0 0 0 0 0 0 0 0 0 127 0" result="hardAlpha"/>
<feOffset dy="2"/>
<feGaussianBlur stdDeviation="2"/>
<feComposite in2="hardAlpha" operator="arithmetic" k2="-1" k3="1"/>
<feColorMatrix type="matrix" values="0 0 0 0 1 0 0 0 0 1 0 0 0 0 1 0 0 0 0.54 0"/>
<feBlend mode="normal" in2="shape" result="effect1_innerShadow_351_3529"/>
<feColorMatrix in="SourceAlpha" type="matrix" values="0 0 0 0 0 0 0 0 0 0 0 0 0 0 0 0 0 0 127 0" result="hardAlpha"/>
<feOffset dy="-3"/>
<feGaussianBlur stdDeviation="2"/>
<feComposite in2="hardAlpha" operator="arithmetic" k2="-1" k3="1"/>
<feColorMatrix type="matrix" values="0 0 0 0 0.0705882 0 0 0 0 0.729412 0 0 0 0 0.176471 0 0 0 0.94 0"/>
<feBlend mode="normal" in2="effect1_innerShadow_351_3529" result="effect2_innerShadow_351_3529"/>
<feColorMatrix in="SourceAlpha" type="matrix" values="0 0 0 0 0 0 0 0 0 0 0 0 0 0 0 0 0 0 127 0" result="hardAlpha"/>
<feOffset dy="-2"/>
<feGaussianBlur stdDeviation="1"/>
<feComposite in2="hardAlpha" operator="arithmetic" k2="-1" k3="1"/>
<feColorMatrix type="matrix" values="0 0 0 0 0.372549 0 0 0 0 0.94902 0 0 0 0 0.470588 0 0 0 0.4 0"/>
<feBlend mode="normal" in2="effect2_innerShadow_351_3529" result="effect3_innerShadow_351_3529"/>
</filter>
<linearGradient id="paint0_linear_351_3529" x1="26.6192" y1="28.3457" x2="4.83792" y2="-1.75535" gradientUnits="userSpaceOnUse">
<stop stop-color="#12BA2D"/>
<stop offset="1" stop-color="#5FF278"/>
</linearGradient>
</defs>
</svg>
