<svg width="140" height="142" viewBox="0 0 140 142" fill="none" xmlns="http://www.w3.org/2000/svg">
<path d="M71.5676 125.418C104.368 125.418 130.968 99.0183 130.968 66.4183C130.968 33.8183 104.368 7.41827 71.5676 7.41827C38.7676 7.41827 12.1676 33.8183 12.1676 66.4183C12.1676 99.0183 38.7676 125.418 71.5676 125.418Z" fill="#EAEEF9"/>
<path d="M117.068 58.7182V94.8182C117.068 102.318 110.968 108.418 103.368 108.418H39.9676C32.4676 108.418 26.3676 102.418 26.2676 94.9182C26.2676 94.8182 26.2676 94.8182 26.2676 94.7182V58.7182C26.2676 58.6182 26.2676 58.6182 26.2676 58.5182C26.2676 58.3182 26.2676 58.1182 26.3676 57.9182C26.4676 57.6182 26.5676 57.4182 26.6676 57.1182L43.6676 24.6182C44.2676 23.3182 45.5676 22.6182 46.9676 22.6182H96.2676C97.6676 22.6182 98.8676 23.3182 99.5676 24.6182L116.568 57.1182C116.668 57.3182 116.768 57.6182 116.868 57.9182C117.068 58.1182 117.068 58.4182 117.068 58.7182Z" fill="#D5DDEA"/>
<g filter="url(#filter0_d_365_7586)">
<path d="M117.068 58.7183V98.5183C117.068 104.018 112.668 108.418 107.068 108.418H36.2676C30.7676 108.418 26.2676 104.018 26.2676 98.5183V58.5183C26.2676 58.3183 26.2676 58.1183 26.3676 57.9183H49.1676C52.5676 57.9183 55.3676 60.6183 55.3676 64.1183C55.3676 65.8183 56.0676 67.4183 57.1676 68.5183C58.3676 69.7183 59.7676 70.3183 61.5676 70.3183H81.8676C85.2676 70.3183 88.0676 67.6183 88.0676 64.1183C88.0676 62.4183 88.7676 60.8183 89.8676 59.7183C91.0676 58.5183 92.4676 57.9183 94.1676 57.9183H116.868C117.068 58.1183 117.068 58.4183 117.068 58.7183Z" fill="url(#paint0_linear_365_7586)"/>
</g>
<path d="M129.45 38.2183C131.714 38.2183 133.55 36.3826 133.55 34.1182C133.55 31.8539 131.714 30.0182 129.45 30.0182C127.185 30.0182 125.35 31.8539 125.35 34.1182C125.35 36.3826 127.185 38.2183 129.45 38.2183Z" fill="#EAEEF9"/>
<path d="M125.35 24.9183C126.896 24.9183 128.15 23.6647 128.15 22.1183C128.15 20.5719 126.896 19.3183 125.35 19.3183C123.804 19.3183 122.55 20.5719 122.55 22.1183C122.55 23.6647 123.804 24.9183 125.35 24.9183Z" fill="#EAEEF9"/>
<path d="M11.9499 34.1182C13.4963 34.1182 14.7499 32.8646 14.7499 31.3182C14.7499 29.7719 13.4963 28.5182 11.9499 28.5182C10.4035 28.5182 9.1499 29.7719 9.1499 31.3182C9.1499 32.8646 10.4035 34.1182 11.9499 34.1182Z" fill="#EAEEF9"/>
<path d="M5.64995 95.7183C8.52183 95.7183 10.85 93.3902 10.85 90.5183C10.85 87.6464 8.52183 85.3183 5.64995 85.3183C2.77807 85.3183 0.449951 87.6464 0.449951 90.5183C0.449951 93.3902 2.77807 95.7183 5.64995 95.7183Z" fill="#EAEEF9"/>
<path d="M96.6876 10.5873C97.9927 24.8345 98.6452 28.0972 95.6904 41C94.7295 43.8685 93.7686 47.0102 91.7095 49.1958C88.8268 52.6107 83.6104 54.1133 79.3549 53.0205C74.9621 51.9277 71.393 48.103 70.5694 43.4587C69.883 40.5902 70.8439 37.1752 73.3149 35.3995C75.9231 33.7603 79.6294 34.1701 81.8258 36.2191C84.2967 38.268 85.2576 41.4097 85.1204 44.4149C84.9831 47.42 83.8849 50.4252 82.3749 53.0205C78.9614 59.4022 77.5561 59.3787 70.5694 69.8598" stroke="#ABB5CC" stroke-width="2" stroke-miterlimit="10" stroke-dasharray="4 4"/>
<path d="M104.341 5.28113C103.819 7.18493 101.732 7.87722 99.6451 6.66571C97.3841 5.62727 95.8187 4.76191 96.1666 3.03118C96.6883 1.30046 98.7755 1.12738 101.21 0.954311C104.167 0.608166 104.689 3.37733 104.341 5.28113Z" fill="#DAE2EB"/>
<path d="M87.4701 7.01171C88.3397 8.56936 90.7747 9.6078 92.514 8.05015C94.4272 6.31942 95.9926 5.10791 95.123 3.37719C94.2533 1.81953 92.8619 2.33875 89.9051 2.68489C87.4701 3.20411 86.4265 5.28098 87.4701 7.01171Z" fill="#DAE2EB"/>
<path d="M95.1229 0.608231C96.3404 0.435158 97.5579 1.12745 97.9058 2.16588C98.0797 2.51203 98.2536 3.03125 98.2536 3.37739C98.6015 5.80041 97.7319 7.87728 96.3404 8.05035C94.7751 8.3965 93.2097 6.66577 93.0358 4.41583C93.0358 3.72354 93.0358 3.37739 93.0358 2.85818C93.2097 1.64667 93.9054 0.781304 95.1229 0.608231C95.2968 0.608231 95.1229 0.608231 95.1229 0.608231Z" fill="#989FB0"/>
<path d="M60.2582 84.6779C61.5253 84.6779 62.5525 83.6507 62.5525 82.3836C62.5525 81.1165 61.5253 80.0893 60.2582 80.0893C58.9911 80.0893 57.9639 81.1165 57.9639 82.3836C57.9639 83.6507 58.9911 84.6779 60.2582 84.6779Z" fill="#989FB0"/>
<path d="M83.0771 84.6779C84.3442 84.6779 85.3714 83.6507 85.3714 82.3836C85.3714 81.1165 84.3442 80.0893 83.0771 80.0893C81.81 80.0893 80.7828 81.1165 80.7828 82.3836C80.7828 83.6507 81.81 84.6779 83.0771 84.6779Z" fill="#989FB0"/>
<path d="M75.3881 99.7459H68.1952C67.079 99.7459 66.1489 98.8158 66.1489 97.6996C66.1489 96.5835 67.079 95.6534 68.1952 95.6534H75.3261C76.4423 95.6534 77.3724 96.5835 77.3724 97.6996C77.4344 98.8158 76.5043 99.7459 75.3881 99.7459Z" fill="#989FB0"/>
<defs>
<filter id="filter0_d_365_7586" x="4.26758" y="46.9183" width="134.8" height="94.5" filterUnits="userSpaceOnUse" color-interpolation-filters="sRGB">
<feFlood flood-opacity="0" result="BackgroundImageFix"/>
<feColorMatrix in="SourceAlpha" type="matrix" values="0 0 0 0 0 0 0 0 0 0 0 0 0 0 0 0 0 0 127 0" result="hardAlpha"/>
<feOffset dy="11"/>
<feGaussianBlur stdDeviation="11"/>
<feColorMatrix type="matrix" values="0 0 0 0 0.397708 0 0 0 0 0.47749 0 0 0 0 0.575 0 0 0 0.27 0"/>
<feBlend mode="normal" in2="BackgroundImageFix" result="effect1_dropShadow_365_7586"/>
<feBlend mode="normal" in="SourceGraphic" in2="effect1_dropShadow_365_7586" result="shape"/>
</filter>
<linearGradient id="paint0_linear_365_7586" x1="71.638" y1="56.7502" x2="71.638" y2="108.963" gradientUnits="userSpaceOnUse">
<stop stop-color="#FDFEFF"/>
<stop offset="0.9964" stop-color="#ECF0F5"/>
</linearGradient>
</defs>
</svg>
