<svg width="18" height="16" viewBox="0 0 18 16" fill="none" xmlns="http://www.w3.org/2000/svg">
<path d="M3.6665 12V7.33329M6.33317 12V7.33329M8.99984 12V7.33329M11.6665 12V7.33329M14.3332 12V7.33329M1.6665 14.6666H16.3332M9.2465 1.43331L15.2465 3.83329C15.4798 3.92663 15.6665 4.20662 15.6665 4.45329V6.66663C15.6665 7.03329 15.3665 7.33329 14.9998 7.33329H2.99984C2.63317 7.33329 2.33317 7.03329 2.33317 6.66663V4.45329C2.33317 4.20662 2.51984 3.92663 2.75317 3.83329L8.75317 1.43331C8.88651 1.37998 9.11317 1.37998 9.2465 1.43331ZM15.6665 14.6666H2.33317V12.6666C2.33317 12.3 2.63317 12 2.99984 12H14.9998C15.3665 12 15.6665 12.3 15.6665 12.6666V14.6666ZM9.99984 4.66663C9.99984 5.21891 9.55212 5.66663 8.99984 5.66663C8.44755 5.66663 7.99984 5.21891 7.99984 4.66663C7.99984 4.11434 8.44755 3.66663 8.99984 3.66663C9.55212 3.66663 9.99984 4.11434 9.99984 4.66663Z" stroke="#72908D" stroke-width="1.5" stroke-miterlimit="10" stroke-linecap="round" stroke-linejoin="round"/>
</svg>
