<svg width="28" height="28" viewBox="0 0 28 28" fill="none" xmlns="http://www.w3.org/2000/svg">
<g filter="url(#filter0_iii_365_3541)">
<rect width="28" height="28" rx="6" fill="url(#paint0_linear_365_3541)"/>
<path d="M14.6666 12H10.6666M19.9999 15.3667C20.3733 15.3534 20.6666 15.0534 20.6666 14.6867V13.3134C20.6666 12.9467 20.3733 12.6467 19.9999 12.6334M19.9999 15.3667H18.6933C17.9733 15.3667 17.3133 14.84 17.2533 14.12C17.2133 13.7 17.3733 13.3067 17.6533 13.0334C17.8999 12.78 18.2399 12.6334 18.6133 12.6334H19.9999M19.9999 15.3667L19.9999 16.3334C19.9999 18.3334 18.6666 19.6667 16.6666 19.6667H10.6666C8.66659 19.6667 7.33325 18.3334 7.33325 16.3334V11.6667C7.33325 9.85337 8.42659 8.58671 10.1266 8.37337C10.2999 8.34671 10.4799 8.33337 10.6666 8.33337H16.6666C16.8399 8.33337 17.0066 8.34003 17.1666 8.3667C18.8866 8.5667 19.9999 9.84004 19.9999 11.6667L19.9999 12.6334" stroke="white" stroke-width="1.5" stroke-linecap="round" stroke-linejoin="round"/>
</g>
<defs>
<filter id="filter0_iii_365_3541" x="0" y="-3" width="28" height="33" filterUnits="userSpaceOnUse" color-interpolation-filters="sRGB">
<feFlood flood-opacity="0" result="BackgroundImageFix"/>
<feBlend mode="normal" in="SourceGraphic" in2="BackgroundImageFix" result="shape"/>
<feColorMatrix in="SourceAlpha" type="matrix" values="0 0 0 0 0 0 0 0 0 0 0 0 0 0 0 0 0 0 127 0" result="hardAlpha"/>
<feOffset dy="2"/>
<feGaussianBlur stdDeviation="2"/>
<feComposite in2="hardAlpha" operator="arithmetic" k2="-1" k3="1"/>
<feColorMatrix type="matrix" values="0 0 0 0 1 0 0 0 0 1 0 0 0 0 1 0 0 0 0.54 0"/>
<feBlend mode="normal" in2="shape" result="effect1_innerShadow_365_3541"/>
<feColorMatrix in="SourceAlpha" type="matrix" values="0 0 0 0 0 0 0 0 0 0 0 0 0 0 0 0 0 0 127 0" result="hardAlpha"/>
<feOffset dy="-3"/>
<feGaussianBlur stdDeviation="2"/>
<feComposite in2="hardAlpha" operator="arithmetic" k2="-1" k3="1"/>
<feColorMatrix type="matrix" values="0 0 0 0 0.384314 0 0 0 0 0.388235 0 0 0 0 0.835294 0 0 0 0.94 0"/>
<feBlend mode="normal" in2="effect1_innerShadow_365_3541" result="effect2_innerShadow_365_3541"/>
<feColorMatrix in="SourceAlpha" type="matrix" values="0 0 0 0 0 0 0 0 0 0 0 0 0 0 0 0 0 0 127 0" result="hardAlpha"/>
<feOffset dy="-2"/>
<feGaussianBlur stdDeviation="1"/>
<feComposite in2="hardAlpha" operator="arithmetic" k2="-1" k3="1"/>
<feColorMatrix type="matrix" values="0 0 0 0 0.384314 0 0 0 0 0.388235 0 0 0 0 0.835294 0 0 0 0.4 0"/>
<feBlend mode="normal" in2="effect2_innerShadow_365_3541" result="effect3_innerShadow_365_3541"/>
</filter>
<linearGradient id="paint0_linear_365_3541" x1="26.6192" y1="28.3457" x2="4.83792" y2="-1.75535" gradientUnits="userSpaceOnUse">
<stop stop-color="#6263D5"/>
<stop offset="1" stop-color="#B4B4FF"/>
</linearGradient>
</defs>
</svg>
