<svg width="40" height="41" viewBox="0 0 40 41" fill="none" xmlns="http://www.w3.org/2000/svg">
<g filter="url(#filter0_d_228_4340)">
<rect x="2" y="1.5" width="36" height="36" rx="6" fill="white"/>
<rect x="2.5" y="2" width="35" height="35" rx="5.5" stroke="#EDF1F1"/>
<path d="M25.4 17.6463C24.1933 17.6463 23.7 16.793 24.3 15.7463C24.6466 15.1396 24.44 14.3663 23.8333 14.0196L22.68 13.3596C22.1533 13.0463 21.4733 13.233 21.16 13.7596L21.0866 13.8863C20.4866 14.933 19.5 14.933 18.8933 13.8863L18.82 13.7596C18.52 13.233 17.84 13.0463 17.3133 13.3596L16.16 14.0196C15.5533 14.3663 15.3466 15.1463 15.6933 15.753C16.3 16.793 15.8066 17.6463 14.6 17.6463C13.9066 17.6463 13.3333 18.213 13.3333 18.913V20.0863C13.3333 20.7796 13.9 21.353 14.6 21.353C15.8066 21.353 16.3 22.2063 15.6933 23.253C15.3466 23.8596 15.5533 24.633 16.16 24.9796L17.3133 25.6396C17.84 25.953 18.52 25.7663 18.8333 25.2396L18.9066 25.113C19.5066 24.0663 20.4933 24.0663 21.1 25.113L21.1733 25.2396C21.4866 25.7663 22.1666 25.953 22.6933 25.6396L23.8466 24.9796C24.4533 24.633 24.66 23.853 24.3133 23.253C23.7066 22.2063 24.2 21.353 25.4066 21.353C26.1 21.353 26.6733 20.7863 26.6733 20.0863V18.913C26.6666 18.2196 26.1 17.6463 25.4 17.6463ZM20 21.6663C18.8066 21.6663 17.8333 20.693 17.8333 19.4996C17.8333 18.3063 18.8066 17.333 20 17.333C21.1933 17.333 22.1666 18.3063 22.1666 19.4996C22.1666 20.693 21.1933 21.6663 20 21.6663Z" fill="#72908D"/>
</g>
<defs>
<filter id="filter0_d_228_4340" x="0" y="0.5" width="40" height="40" filterUnits="userSpaceOnUse" color-interpolation-filters="sRGB">
<feFlood flood-opacity="0" result="BackgroundImageFix"/>
<feColorMatrix in="SourceAlpha" type="matrix" values="0 0 0 0 0 0 0 0 0 0 0 0 0 0 0 0 0 0 127 0" result="hardAlpha"/>
<feOffset dy="1"/>
<feGaussianBlur stdDeviation="1"/>
<feColorMatrix type="matrix" values="0 0 0 0 0.0941176 0 0 0 0 0.137255 0 0 0 0 0.133333 0 0 0 0.05 0"/>
<feBlend mode="normal" in2="BackgroundImageFix" result="effect1_dropShadow_228_4340"/>
<feBlend mode="normal" in="SourceGraphic" in2="effect1_dropShadow_228_4340" result="shape"/>
</filter>
</defs>
</svg>
