<svg width="36" height="36" viewBox="0 0 36 36" fill="none" xmlns="http://www.w3.org/2000/svg">
<g filter="url(#filter0_d_2_27404)">
<rect x="2" y="1" width="32" height="32" rx="6" fill="white"/>
<rect x="2.5" y="1.5" width="31" height="31" rx="5.5" stroke="#EDF1F1"/>
<path d="M18.9375 17C18.9375 17.1854 18.8825 17.3667 18.7795 17.5208C18.6765 17.675 18.5301 17.7952 18.3588 17.8661C18.1875 17.9371 17.999 17.9557 17.8171 17.9195C17.6352 17.8833 17.4682 17.794 17.3371 17.6629C17.206 17.5318 17.1167 17.3648 17.0805 17.1829C17.0443 17.001 17.0629 16.8125 17.1339 16.6412C17.2048 16.4699 17.325 16.3235 17.4792 16.2205C17.6333 16.1175 17.8146 16.0625 18 16.0625C18.2486 16.0625 18.4871 16.1613 18.6629 16.3371C18.8387 16.5129 18.9375 16.7514 18.9375 17ZM18 12.625C18.1854 12.625 18.3667 12.57 18.5208 12.467C18.675 12.364 18.7952 12.2176 18.8661 12.0463C18.9371 11.875 18.9557 11.6865 18.9195 11.5046C18.8833 11.3227 18.794 11.1557 18.6629 11.0246C18.5318 10.8935 18.3648 10.8042 18.1829 10.768C18.001 10.7318 17.8125 10.7504 17.6412 10.8214C17.4699 10.8923 17.3235 11.0125 17.2205 11.1667C17.1175 11.3208 17.0625 11.5021 17.0625 11.6875C17.0625 11.9361 17.1613 12.1746 17.3371 12.3504C17.5129 12.5262 17.7514 12.625 18 12.625ZM18 21.375C17.8146 21.375 17.6333 21.43 17.4792 21.533C17.325 21.636 17.2048 21.7824 17.1339 21.9537C17.0629 22.125 17.0443 22.3135 17.0805 22.4954C17.1167 22.6773 17.206 22.8443 17.3371 22.9754C17.4682 23.1065 17.6352 23.1958 17.8171 23.232C17.999 23.2682 18.1875 23.2496 18.3588 23.1786C18.5301 23.1077 18.6765 22.9875 18.7795 22.8333C18.8825 22.6792 18.9375 22.4979 18.9375 22.3125C18.9375 22.0639 18.8387 21.8254 18.6629 21.6496C18.4871 21.4738 18.2486 21.375 18 21.375Z" fill="#4F7471"/>
</g>
<defs>
<filter id="filter0_d_2_27404" x="0" y="0" width="36" height="36" filterUnits="userSpaceOnUse" color-interpolation-filters="sRGB">
<feFlood flood-opacity="0" result="BackgroundImageFix"/>
<feColorMatrix in="SourceAlpha" type="matrix" values="0 0 0 0 0 0 0 0 0 0 0 0 0 0 0 0 0 0 127 0" result="hardAlpha"/>
<feOffset dy="1"/>
<feGaussianBlur stdDeviation="1"/>
<feColorMatrix type="matrix" values="0 0 0 0 0.0941176 0 0 0 0 0.137255 0 0 0 0 0.133333 0 0 0 0.05 0"/>
<feBlend mode="normal" in2="BackgroundImageFix" result="effect1_dropShadow_2_27404"/>
<feBlend mode="normal" in="SourceGraphic" in2="effect1_dropShadow_2_27404" result="shape"/>
</filter>
</defs>
</svg>
