<svg width="36" height="36" viewBox="0 0 36 36" fill="none" xmlns="http://www.w3.org/2000/svg">
<g filter="url(#filter0_d_2_23539)">
<rect x="2" y="1" width="32" height="32" rx="6" fill="white"/>
<rect x="2.5" y="1.5" width="31" height="31" rx="5.5" stroke="#EDF1F1"/>
<mask id="mask0_2_23539" style="mask-type:alpha" maskUnits="userSpaceOnUse" x="8" y="7" width="20" height="20">
<rect x="8" y="7" width="20" height="20" fill="#D9D9D9"/>
</mask>
<g mask="url(#mask0_2_23539)">
<path d="M15.7083 25.3337L15.375 22.667C15.1944 22.5975 15.0243 22.5142 14.8646 22.417C14.7049 22.3198 14.5486 22.2156 14.3958 22.1045L11.9167 23.1462L9.625 19.1878L11.7708 17.5628C11.7569 17.4656 11.75 17.3719 11.75 17.2816V16.7191C11.75 16.6288 11.7569 16.535 11.7708 16.4378L9.625 14.8128L11.9167 10.8545L14.3958 11.8962C14.5486 11.785 14.7083 11.6809 14.875 11.5837C15.0417 11.4864 15.2083 11.4031 15.375 11.3337L15.7083 8.66699H20.2917L20.625 11.3337C20.8056 11.4031 20.9757 11.4864 21.1354 11.5837C21.2951 11.6809 21.4514 11.785 21.6042 11.8962L24.0833 10.8545L26.375 14.8128L24.2292 16.4378C24.2431 16.535 24.25 16.6288 24.25 16.7191V17.2816C24.25 17.3719 24.2361 17.4656 24.2083 17.5628L26.3542 19.1878L24.0625 23.1462L21.6042 22.1045C21.4514 22.2156 21.2917 22.3198 21.125 22.417C20.9583 22.5142 20.7917 22.5975 20.625 22.667L20.2917 25.3337H15.7083ZM17.1667 23.667H18.8125L19.1042 21.4587C19.5347 21.3475 19.934 21.1844 20.3021 20.9691C20.6701 20.7538 21.0069 20.4934 21.3125 20.1878L23.375 21.042L24.1875 19.6253L22.3958 18.2712C22.4653 18.0767 22.5139 17.8719 22.5417 17.6566C22.5694 17.4413 22.5833 17.2225 22.5833 17.0003C22.5833 16.7781 22.5694 16.5594 22.5417 16.3441C22.5139 16.1288 22.4653 15.9239 22.3958 15.7295L24.1875 14.3753L23.375 12.9587L21.3125 13.8337C21.0069 13.5142 20.6701 13.2469 20.3021 13.0316C19.934 12.8163 19.5347 12.6531 19.1042 12.542L18.8333 10.3337H17.1875L16.8958 12.542C16.4653 12.6531 16.066 12.8163 15.6979 13.0316C15.3299 13.2469 14.9931 13.5073 14.6875 13.8128L12.625 12.9587L11.8125 14.3753L13.6042 15.7087C13.5347 15.917 13.4861 16.1253 13.4583 16.3337C13.4306 16.542 13.4167 16.7642 13.4167 17.0003C13.4167 17.2225 13.4306 17.4378 13.4583 17.6462C13.4861 17.8545 13.5347 18.0628 13.6042 18.2712L11.8125 19.6253L12.625 21.042L14.6875 20.167C14.9931 20.4864 15.3299 20.7538 15.6979 20.9691C16.066 21.1844 16.4653 21.3475 16.8958 21.4587L17.1667 23.667ZM18.0417 19.917C18.8472 19.917 19.5347 19.6323 20.1042 19.0628C20.6736 18.4934 20.9583 17.8059 20.9583 17.0003C20.9583 16.1948 20.6736 15.5073 20.1042 14.9378C19.5347 14.3684 18.8472 14.0837 18.0417 14.0837C17.2222 14.0837 16.5312 14.3684 15.9688 14.9378C15.4062 15.5073 15.125 16.1948 15.125 17.0003C15.125 17.8059 15.4062 18.4934 15.9688 19.0628C16.5312 19.6323 17.2222 19.917 18.0417 19.917Z" fill="#4F7471"/>
</g>
</g>
<defs>
<filter id="filter0_d_2_23539" x="0" y="0" width="36" height="36" filterUnits="userSpaceOnUse" color-interpolation-filters="sRGB">
<feFlood flood-opacity="0" result="BackgroundImageFix"/>
<feColorMatrix in="SourceAlpha" type="matrix" values="0 0 0 0 0 0 0 0 0 0 0 0 0 0 0 0 0 0 127 0" result="hardAlpha"/>
<feOffset dy="1"/>
<feGaussianBlur stdDeviation="1"/>
<feColorMatrix type="matrix" values="0 0 0 0 0.0941176 0 0 0 0 0.137255 0 0 0 0 0.133333 0 0 0 0.05 0"/>
<feBlend mode="normal" in2="BackgroundImageFix" result="effect1_dropShadow_2_23539"/>
<feBlend mode="normal" in="SourceGraphic" in2="effect1_dropShadow_2_23539" result="shape"/>
</filter>
</defs>
</svg>
