<svg width="16" height="16" viewBox="0 0 16 16" fill="none" xmlns="http://www.w3.org/2000/svg">
<mask id="mask0_2_27350" style="mask-type:alpha" maskUnits="userSpaceOnUse" x="0" y="0" width="16" height="16">
<rect width="16" height="16" fill="#72908D"/>
</mask>
<g mask="url(#mask0_2_27350)">
<path d="M6.66667 12.667C6.47778 12.667 6.31944 12.6031 6.19167 12.4753C6.06389 12.3475 6 12.1892 6 12.0003C6 11.8114 6.06389 11.6531 6.19167 11.5253C6.31944 11.3975 6.47778 11.3337 6.66667 11.3337H13.3333C13.5222 11.3337 13.6806 11.3975 13.8083 11.5253C13.9361 11.6531 14 11.8114 14 12.0003C14 12.1892 13.9361 12.3475 13.8083 12.4753C13.6806 12.6031 13.5222 12.667 13.3333 12.667H6.66667ZM6.66667 8.66699C6.47778 8.66699 6.31944 8.6031 6.19167 8.47533C6.06389 8.34755 6 8.18921 6 8.00033C6 7.81144 6.06389 7.6531 6.19167 7.52533C6.31944 7.39755 6.47778 7.33366 6.66667 7.33366H13.3333C13.5222 7.33366 13.6806 7.39755 13.8083 7.52533C13.9361 7.6531 14 7.81144 14 8.00033C14 8.18921 13.9361 8.34755 13.8083 8.47533C13.6806 8.6031 13.5222 8.66699 13.3333 8.66699H6.66667ZM6.66667 4.66699C6.47778 4.66699 6.31944 4.6031 6.19167 4.47533C6.06389 4.34755 6 4.18921 6 4.00033C6 3.81144 6.06389 3.6531 6.19167 3.52533C6.31944 3.39755 6.47778 3.33366 6.66667 3.33366H13.3333C13.5222 3.33366 13.6806 3.39755 13.8083 3.52533C13.9361 3.6531 14 3.81144 14 4.00033C14 4.18921 13.9361 4.34755 13.8083 4.47533C13.6806 4.6031 13.5222 4.66699 13.3333 4.66699H6.66667ZM3.33333 13.3337C2.96667 13.3337 2.65278 13.2031 2.39167 12.942C2.13056 12.6809 2 12.367 2 12.0003C2 11.6337 2.13056 11.3198 2.39167 11.0587C2.65278 10.7975 2.96667 10.667 3.33333 10.667C3.7 10.667 4.01389 10.7975 4.275 11.0587C4.53611 11.3198 4.66667 11.6337 4.66667 12.0003C4.66667 12.367 4.53611 12.6809 4.275 12.942C4.01389 13.2031 3.7 13.3337 3.33333 13.3337ZM3.33333 9.33366C2.96667 9.33366 2.65278 9.2031 2.39167 8.94199C2.13056 8.68088 2 8.36699 2 8.00033C2 7.63366 2.13056 7.31977 2.39167 7.05866C2.65278 6.79755 2.96667 6.66699 3.33333 6.66699C3.7 6.66699 4.01389 6.79755 4.275 7.05866C4.53611 7.31977 4.66667 7.63366 4.66667 8.00033C4.66667 8.36699 4.53611 8.68088 4.275 8.94199C4.01389 9.2031 3.7 9.33366 3.33333 9.33366ZM3.33333 5.33366C2.96667 5.33366 2.65278 5.2031 2.39167 4.94199C2.13056 4.68088 2 4.36699 2 4.00033C2 3.63366 2.13056 3.31977 2.39167 3.05866C2.65278 2.79755 2.96667 2.66699 3.33333 2.66699C3.7 2.66699 4.01389 2.79755 4.275 3.05866C4.53611 3.31977 4.66667 3.63366 4.66667 4.00033C4.66667 4.36699 4.53611 4.68088 4.275 4.94199C4.01389 5.2031 3.7 5.33366 3.33333 5.33366Z" fill="#72908D"/>
</g>
</svg>
