<svg width="12" height="12" viewBox="0 0 12 12" fill="none" xmlns="http://www.w3.org/2000/svg">
<path d="M1.33333 12C0.966667 12 0.652778 11.8694 0.391667 11.6083C0.130556 11.3472 0 11.0333 0 10.6667V1.33333C0 0.966667 0.130556 0.652778 0.391667 0.391667C0.652778 0.130556 0.966667 0 1.33333 0H4C4.36667 0 4.68056 0.130556 4.94167 0.391667C5.20278 0.652778 5.33333 0.966667 5.33333 1.33333V10.6667C5.33333 11.0333 5.20278 11.3472 4.94167 11.6083C4.68056 11.8694 4.36667 12 4 12H1.33333ZM8 12C7.63333 12 7.31945 11.8694 7.05833 11.6083C6.79722 11.3472 6.66667 11.0333 6.66667 10.6667V7.33333C6.66667 6.96667 6.79722 6.65278 7.05833 6.39167C7.31945 6.13056 7.63333 6 8 6H10.6667C11.0333 6 11.3472 6.13056 11.6083 6.39167C11.8694 6.65278 12 6.96667 12 7.33333V10.6667C12 11.0333 11.8694 11.3472 11.6083 11.6083C11.3472 11.8694 11.0333 12 10.6667 12H8ZM8 4.66667C7.63333 4.66667 7.31945 4.53611 7.05833 4.275C6.79722 4.01389 6.66667 3.7 6.66667 3.33333V1.33333C6.66667 0.966667 6.79722 0.652778 7.05833 0.391667C7.31945 0.130556 7.63333 0 8 0H10.6667C11.0333 0 11.3472 0.130556 11.6083 0.391667C11.8694 0.652778 12 0.966667 12 1.33333V3.33333C12 3.7 11.8694 4.01389 11.6083 4.275C11.3472 4.53611 11.0333 4.66667 10.6667 4.66667H8Z" fill="#0037FF"/>
</svg>
