<svg width="20" height="20" viewBox="0 0 20 20" fill="none" xmlns="http://www.w3.org/2000/svg">
<mask id="mask0_5_241" style="mask-type:alpha" maskUnits="userSpaceOnUse" x="0" y="0" width="20" height="20">
<rect width="20" height="20" fill="#D9D9D9"/>
</mask>
<g mask="url(#mask0_5_241)">
<path d="M10.0002 17.5C8.15294 17.5 6.58002 16.8576 5.28141 15.5729C3.9828 14.2882 3.3335 12.7361 3.3335 10.9166C3.3335 9.99996 3.50711 9.15274 3.85433 8.37496C4.20155 7.59718 4.68072 6.90274 5.29183 6.29163L10.0002 1.66663L14.7085 6.29163C15.3196 6.90274 15.7988 7.59718 16.146 8.37496C16.4932 9.15274 16.6668 9.99996 16.6668 10.9166C16.6668 12.7361 16.0175 14.2882 14.7189 15.5729C13.4203 16.8576 11.8474 17.5 10.0002 17.5ZM10.0002 15.8333V3.99996L6.4585 7.49996C5.97238 7.95829 5.6078 8.47565 5.36475 9.05204C5.12169 9.62843 5.00016 10.25 5.00016 10.9166C5.00016 12.2638 5.48627 13.4201 6.4585 14.3854C7.43072 15.3507 8.61127 15.8333 10.0002 15.8333Z" fill="#0037FF"/>
</g>
</svg>
