<svg width="29" height="28" viewBox="0 0 29 28" fill="none" xmlns="http://www.w3.org/2000/svg">
<g filter="url(#filter0_iii_351_3567)">
<rect x="0.666504" width="28" height="28" rx="6" fill="url(#paint0_linear_351_3567)"/>
<path d="M15.3331 13.4336H11.3331M7.99976 13.4336V10.3536C7.99976 8.99356 9.09976 7.89355 10.4598 7.89355H14.2064C15.5664 7.89355 16.6664 8.74022 16.6664 10.1002M18.3197 14.1335C17.9864 14.4535 17.8264 14.9469 17.9598 15.4535C18.1264 16.0735 18.7398 16.4669 19.3798 16.4669H19.9998V17.4336C19.9998 18.9069 18.8064 20.1002 17.3331 20.1002H10.6664C9.19309 20.1002 7.99976 18.9069 7.99976 17.4336V12.7669C7.99976 11.2936 9.19309 10.1002 10.6664 10.1002H17.3331C18.7998 10.1002 19.9998 11.3002 19.9998 12.7669V13.7335H19.2797M18.3197 14.1335C18.5664 13.8802 18.9064 13.7335 19.2797 13.7335M18.3197 14.1335C18.0397 14.4069 17.8798 14.8002 17.9198 15.2202C17.9798 15.9402 18.6398 16.4669 19.3598 16.4669H20.6464C21.0264 16.4669 21.3331 16.1602 21.3331 15.7869V14.4135C21.3331 14.0402 21.0264 13.7335 20.6464 13.7335H19.2797" stroke="white" stroke-width="1.5" stroke-linecap="round" stroke-linejoin="round"/>
</g>
<defs>
<filter id="filter0_iii_351_3567" x="0.666504" y="-3.03172" width="28" height="33.2838" filterUnits="userSpaceOnUse" color-interpolation-filters="sRGB">
<feFlood flood-opacity="0" result="BackgroundImageFix"/>
<feBlend mode="normal" in="SourceGraphic" in2="BackgroundImageFix" result="shape"/>
<feColorMatrix in="SourceAlpha" type="matrix" values="0 0 0 0 0 0 0 0 0 0 0 0 0 0 0 0 0 0 127 0" result="hardAlpha"/>
<feOffset dy="2.25213"/>
<feGaussianBlur stdDeviation="2.07889"/>
<feComposite in2="hardAlpha" operator="arithmetic" k2="-1" k3="1"/>
<feColorMatrix type="matrix" values="0 0 0 0 1 0 0 0 0 1 0 0 0 0 1 0 0 0 0.54 0"/>
<feBlend mode="normal" in2="shape" result="effect1_innerShadow_351_3567"/>
<feColorMatrix in="SourceAlpha" type="matrix" values="0 0 0 0 0 0 0 0 0 0 0 0 0 0 0 0 0 0 127 0" result="hardAlpha"/>
<feOffset dy="-3.03172"/>
<feGaussianBlur stdDeviation="2.07889"/>
<feComposite in2="hardAlpha" operator="arithmetic" k2="-1" k3="1"/>
<feColorMatrix type="matrix" values="0 0 0 0 1 0 0 0 0 0.352941 0 0 0 0 0.352941 0 0 0 0.94 0"/>
<feBlend mode="normal" in2="effect1_innerShadow_351_3567" result="effect2_innerShadow_351_3567"/>
<feColorMatrix in="SourceAlpha" type="matrix" values="0 0 0 0 0 0 0 0 0 0 0 0 0 0 0 0 0 0 127 0" result="hardAlpha"/>
<feOffset dy="-1.50754"/>
<feGaussianBlur stdDeviation="1.20603"/>
<feComposite in2="hardAlpha" operator="arithmetic" k2="-1" k3="1"/>
<feColorMatrix type="matrix" values="0 0 0 0 1 0 0 0 0 0.352941 0 0 0 0 0.352941 0 0 0 0.4 0"/>
<feBlend mode="normal" in2="effect2_innerShadow_351_3567" result="effect3_innerShadow_351_3567"/>
</filter>
<linearGradient id="paint0_linear_351_3567" x1="27.2857" y1="28.3457" x2="5.50442" y2="-1.75535" gradientUnits="userSpaceOnUse">
<stop stop-color="#EF1313"/>
<stop offset="1" stop-color="#FF7D7D"/>
</linearGradient>
</defs>
</svg>
