<svg width="52" height="52" viewBox="0 0 52 52" fill="none" xmlns="http://www.w3.org/2000/svg">
<g filter="url(#filter0_d_1063_7009)">
<rect x="2" y="1" width="48" height="48" rx="12" fill="white"/>
<rect x="2.5" y="1.5" width="47" height="47" rx="11.5" stroke="#EDF1F1"/>
<rect width="24" height="24" transform="translate(14 13)" fill="white"/>
<path d="M29.59 25.4V29.47C29.59 29.83 29.55 30.17 29.46 30.48C29.09 31.95 27.87 32.87 26.19 32.87H23.47L20.45 34.88C20 35.19 19.4 34.86 19.4 34.32V32.87C18.38 32.87 17.53 32.53 16.94 31.94C16.34 31.34 16 30.49 16 29.47V25.4C16 23.5 17.18 22.19 19 22.02C19.13 22.01 19.26 22 19.4 22H26.19C28.23 22 29.59 23.36 29.59 25.4Z" fill="#95ACAA"/>
<path d="M31.75 28.6C33.02 28.6 34.09 28.18 34.83 27.43C35.58 26.69 36 25.62 36 24.35V19.25C36 16.9 34.1 15 31.75 15H23.25C20.9 15 19 16.9 19 19.25V20C19 20.28 19.22 20.5 19.5 20.5H26.19C28.9 20.5 31.09 22.69 31.09 25.4V28.1C31.09 28.38 31.31 28.6 31.59 28.6H31.75Z" fill="#95ACAA"/>
</g>
<defs>
<filter id="filter0_d_1063_7009" x="0" y="0" width="52" height="52" filterUnits="userSpaceOnUse" color-interpolation-filters="sRGB">
<feFlood flood-opacity="0" result="BackgroundImageFix"/>
<feColorMatrix in="SourceAlpha" type="matrix" values="0 0 0 0 0 0 0 0 0 0 0 0 0 0 0 0 0 0 127 0" result="hardAlpha"/>
<feOffset dy="1"/>
<feGaussianBlur stdDeviation="1"/>
<feColorMatrix type="matrix" values="0 0 0 0 0.0941176 0 0 0 0 0.137255 0 0 0 0 0.133333 0 0 0 0.05 0"/>
<feBlend mode="normal" in2="BackgroundImageFix" result="effect1_dropShadow_1063_7009"/>
<feBlend mode="normal" in="SourceGraphic" in2="effect1_dropShadow_1063_7009" result="shape"/>
</filter>
</defs>
</svg>
